<svg width="11" height="10" viewBox="0 0 11 10" fill="none" xmlns="http://www.w3.org/2000/svg">
<path d="M9.36393 4.62094H9.09835V0.738528C9.09835 0.330903 8.77644 0 8.3822 0H2.45195C2.05724 0 1.73579 0.331023 1.73579 0.738528V4.6207H1.4708C0.662717 4.6207 0 5.33401 0 6.20722V8.41336C0 9.28681 0.662832 10 1.4708 10H9.36381C10.1713 10 10.8333 9.28669 10.8333 8.41336V6.20758C10.8333 5.33413 10.1713 4.62094 9.36393 4.62094ZM2.23135 0.738528C2.23135 0.613289 2.33035 0.510397 2.45183 0.510397H8.38208C8.50276 0.510397 8.60187 0.613289 8.60187 0.738528V4.6207H2.23135V0.738528ZM8.90071 8.22909C8.87718 8.24641 8.85492 8.26876 8.83463 8.2984C8.81284 8.32684 8.79221 8.35182 8.7725 8.37261C8.75558 8.39006 8.72903 8.41503 8.69333 8.44825C8.65751 8.48052 8.62262 8.51554 8.58714 8.5472C8.55225 8.57959 8.51516 8.60935 8.47795 8.63659C8.44132 8.66229 8.41187 8.67973 8.38927 8.68726C8.36643 8.69097 8.3378 8.68977 8.30592 8.67973C8.27462 8.67113 8.24112 8.6587 8.20878 8.64257C8.17621 8.62643 8.14247 8.6066 8.10781 8.58939C8.07524 8.56955 8.04649 8.55461 8.02227 8.54481C7.98262 8.52259 7.90635 8.48757 7.79738 8.43583C7.68737 8.38265 7.57481 8.32911 7.46075 8.27223C7.34633 8.21785 7.23911 8.16468 7.14278 8.11496C7.04575 8.06549 6.98953 8.03071 6.97191 8.01362C6.9092 7.95041 6.87292 7.86962 6.8619 7.77318C6.85101 7.67627 6.84822 7.57995 6.85367 7.48207C6.85715 7.38408 6.8619 7.2923 6.86434 7.20949C6.86677 7.12524 6.84938 7.06226 6.81229 7.02486C6.77856 6.98984 6.72396 6.96164 6.64699 6.94037C6.56955 6.91838 6.50893 6.90237 6.4636 6.88874C6.0762 6.78179 5.70676 6.73004 5.35633 6.73375C5.00567 6.73518 4.63368 6.79183 4.24199 6.90344C4.19527 6.91599 4.13256 6.93188 4.05744 6.94921C3.98128 6.96666 3.92425 6.99522 3.8853 7.03609C3.84612 7.07553 3.82931 7.14771 3.83406 7.25526C3.8365 7.36305 3.84612 7.47586 3.85991 7.59716C3.87383 7.71594 3.88055 7.83102 3.88217 7.94288C3.88217 8.05282 3.85934 8.13241 3.81482 8.17818C3.79801 8.19563 3.73565 8.22156 3.62691 8.25502C3.51876 8.2886 3.40087 8.3223 3.27417 8.35767C3.14677 8.39364 3.02112 8.42579 2.89801 8.45543C2.77444 8.48506 2.69271 8.50657 2.65226 8.52127C2.60855 8.53107 2.54839 8.54864 2.47107 8.57469C2.39468 8.59943 2.33104 8.60158 2.27876 8.58688C2.26671 8.57935 2.24572 8.56095 2.21698 8.53107C2.19008 8.5037 2.16157 8.46833 2.13282 8.42842C2.10198 8.38611 2.07254 8.34297 2.04379 8.29469C2.01377 8.24641 1.98803 8.19945 1.96508 8.15117C1.94097 8.10397 1.923 8.06178 1.90793 8.02462C1.87188 7.92543 1.86284 7.81298 1.87849 7.6838C1.89228 7.55378 1.92439 7.42639 1.97238 7.2984C2.02038 7.16981 2.07857 7.04696 2.1465 6.93081C2.21327 6.81405 2.28108 6.72144 2.346 6.6544C2.48116 6.51434 2.63209 6.40392 2.79832 6.31991C2.9664 6.23685 3.13402 6.1575 3.30547 6.08329C3.58831 5.94718 3.88519 5.84775 4.19319 5.78334C4.50084 5.71917 4.81081 5.6869 5.12379 5.68093C5.43562 5.67579 5.7493 5.69443 6.06402 5.73674C6.37875 5.77904 6.68281 5.84202 6.97481 5.92483C7.08598 5.9522 7.21013 5.98924 7.34935 6.03645C7.48764 6.08497 7.62466 6.1354 7.76029 6.19515C7.898 6.25323 8.02737 6.31907 8.14873 6.38934C8.26825 6.46009 8.37014 6.53824 8.45326 6.62249C8.54634 6.71917 8.62992 6.83043 8.70573 6.96044C8.78154 7.08903 8.84205 7.22562 8.88668 7.36914C8.92969 7.5141 8.95508 7.6593 8.96226 7.80629C8.9691 7.95041 8.9487 8.0925 8.90071 8.22909Z" fill="#263545"/>
</svg>
