<svg width="138" height="44" viewBox="0 0 138 44" fill="none" xmlns="http://www.w3.org/2000/svg">
<g clip-path="url(#clip0_9_1922)">
<path d="M80.9119 22.7371C80.5436 14.9125 82.6607 8.00851 86.1587 3.8663C86.0667 3.95827 85.8828 4.05024 85.7908 4.14221C83.8576 5.79945 82.2924 7.91654 81.2798 10.31C80.1753 12.7034 79.623 15.2808 79.2547 17.8582C79.3467 15.1888 79.715 12.6115 80.6356 10.0336C81.5562 7.54821 82.937 5.0628 84.8702 3.12965C85.6984 2.30148 86.619 1.56482 87.5396 0.828622C85.7903 1.65679 84.2255 2.66935 82.7527 3.8663C80.8195 5.52309 79.2547 7.64018 78.1502 10.0336C77.0456 12.4271 76.4009 15.0045 76.125 17.6743C76.217 15.0045 76.6773 12.3351 77.5979 9.84969C78.5185 7.27231 79.8989 4.87886 81.8321 2.94571C82.6607 2.11709 83.5813 1.38089 84.5019 0.644233C82.7527 1.47286 81.0959 2.48541 79.623 3.68191C77.6899 5.33916 76.125 7.45624 75.0205 9.84969C73.9155 12.2431 73.2713 14.9125 72.903 17.4899C72.9954 14.8205 73.4552 12.1512 74.3758 9.57333C75.2964 6.99595 76.6773 4.6025 78.7024 2.66935C79.4391 1.93315 80.2673 1.1965 81.0959 0.552264C74.3758 2.48541 69.313 11.3225 69.313 22.0928C69.313 32.6787 74.1919 41.5159 80.7275 43.449C79.715 42.7128 78.7944 41.7922 77.8738 40.8716C76.0331 38.8465 74.6522 36.3611 73.9155 33.7837C73.1793 31.2059 72.811 28.4445 72.903 25.7747C73.0874 28.4445 73.6396 31.0219 74.5602 33.5073C75.5728 35.9928 76.9532 38.2023 78.8864 39.951C80.3592 41.3319 81.9245 42.3445 83.6733 43.2651C82.7527 42.5284 81.8321 41.7002 81.0959 40.7796C79.2547 38.7545 77.9662 36.2691 77.1376 33.6913C76.4009 31.1139 76.125 28.4445 76.125 25.7747C76.309 28.4445 76.8612 31.0219 77.7818 33.5073C78.7944 35.9008 80.1753 38.1098 82.0165 39.8591C83.3973 41.148 84.9622 42.2525 86.7109 43.1731C85.7903 42.4364 84.8702 41.6083 84.1336 40.7796C82.2924 38.7545 81.0039 36.2691 80.2673 33.6917C79.5311 31.1139 79.2547 28.4445 79.2547 25.7752C79.4391 28.4445 79.9913 31.0219 80.9119 33.4154C81.8321 35.8088 83.3049 38.0179 85.1461 39.7671C87.1712 41.7002 89.5647 43.0811 92.1421 44.0937H93.7069C86.9873 43.1731 81.3718 34.0596 80.9119 22.7371ZM127.802 30.8015H130.215L131.011 26.3626H134.774L135.57 30.8015H137.983L134.436 13.3837H131.638L127.802 30.8015ZM132.892 15.9408H132.941L134.436 24.3361H131.373L132.892 15.9408ZM118.611 30.8015H121.023V22.889H124.232V30.8015H126.644V13.3837H124.232V20.8625H121.023V13.3837H118.611V30.8015ZM116.874 30.8015V13.3837H113.979L111.084 26.1214H111.036V13.3837H108.744V30.8015H111.639L114.534 18.0638H114.582V30.8015H116.874ZM94.0522 30.8015H107.079V13.3837H104.667V28.775H101.772V13.3837H99.3598V28.775H96.4646V13.3837H94.0522V30.8015ZM58.5991 30.8015H62.3865C65.9088 30.8015 66.3912 29.5955 66.3912 25.832C66.3912 22.8646 66.0053 22.2132 64.0753 21.8516V21.8034C65.7159 21.5861 66.2704 21.0311 66.2704 17.6057C66.2704 14.4211 65.7641 13.3837 62.7968 13.3837H58.5991V30.8015ZM61.0115 22.7443H62.5795C63.9062 22.7443 64.1236 23.1302 64.1236 25.7594C64.1236 28.5099 63.8824 28.9197 62.5073 28.9197H61.0115V22.7443ZM61.0115 15.2655H62.1453C63.6894 15.2655 64.0027 15.7479 64.0027 17.7261C64.0027 20.5731 63.858 20.8625 62.4104 20.8625H61.0115V15.2655ZM50.9999 30.8015H57.5617V28.775H53.4123V22.889H57.3206V20.8625H53.4123V15.4102H57.5617V13.3837H50.9999V30.8015ZM49.4559 13.3837H42.1222V18.2572C42.1222 24.819 42.0497 27.3761 41.35 28.317C41.0849 28.6785 40.8194 28.775 40.3609 28.775H40.3126V30.8015H40.6503C41.6394 30.8015 42.267 30.7532 43.0631 29.9088C44.1005 28.8232 44.5346 25.832 44.5346 19.8973V15.4102H47.0435V30.8015H49.4559V13.3837ZM39.4443 30.8015V13.3837H36.5491L33.6543 26.1214H33.6061V13.3837H31.3145V30.8015H34.2093L37.1041 18.0638H37.1523V30.8015H39.4443ZM23.7636 30.8015H26.176V15.4102H30.3254V13.3837H23.7636V30.8015ZM16.2848 17.6296C16.2848 15.9169 16.8637 15.1208 17.9493 15.1208C19.0592 15.1208 19.6381 15.9169 19.6381 17.6296V26.7729C19.6381 28.2687 18.9628 29.0649 17.9493 29.0649C16.9602 29.0649 16.2848 28.2687 16.2848 26.7729V17.6296ZM13.8725 26.6282C13.8725 29.33 14.8616 30.9462 17.9493 30.9462C21.2543 30.9462 22.0505 28.7993 22.0505 26.3626V17.5575C22.0505 14.8552 21.0614 13.239 17.9493 13.239C14.6686 13.239 13.8725 15.3863 13.8725 17.8226V26.6282ZM0.0974121 30.8015H2.22036V15.1208H2.2686L4.97041 30.8015H7.38279L9.84386 15.1208H9.8921V30.8015H12.1598V13.3837H8.42015L6.20072 26.6521H6.15248L3.93306 13.3837H0.0974121V30.8015ZM95.1802 0C87.8159 0 81.8321 9.84969 81.8321 22.0928C81.8321 34.336 87.8159 44.1857 95.1802 44.1857C100.068 44.1857 104.347 39.8455 106.672 33.3473H105.183C103.235 37.4809 100.248 40.135 96.9289 40.135C91.1295 40.135 86.3431 32.0345 86.3431 22.0928C86.3431 12.1512 91.0375 4.05024 96.9289 4.05024C100.248 4.05024 103.235 6.70471 105.184 10.8384H106.672C104.347 4.34012 100.068 0 95.1802 0Z" fill="#263545"/>
</g>
<defs>
<clipPath id="clip0_9_1922">
<rect width="137.5" height="44" fill="white"/>
</clipPath>
</defs>
</svg>
