<svg width="7" height="4" viewBox="0 0 7 4" fill="none" xmlns="http://www.w3.org/2000/svg">
<path d="M6.6094 0.667131C6.60934 0.84408 6.53974 1.01379 6.41585 1.1391L3.78065 3.80451C3.71934 3.86648 3.64651 3.91564 3.56634 3.94919C3.48617 3.98273 3.40022 4 3.31342 4C3.22662 4 3.14067 3.98273 3.06049 3.94919C2.98032 3.91564 2.90749 3.86648 2.84619 3.80451L0.193532 1.1375C0.0696156 1.01254 0 0.843053 0 0.666331C0 0.489609 0.0696156 0.320125 0.193532 0.195164C0.317449 0.0702027 0.485517 0 0.660761 0C0.836006 0 1.00407 0.0702027 1.12799 0.195164L3.30469 1.1391L5.48139 0.195164C5.57448 0.101828 5.69299 0.0385272 5.82185 0.0133145C5.95072 -0.0118982 6.08411 0.00211706 6.20505 0.0535778C6.32599 0.105039 6.42902 0.191618 6.50103 0.3023C6.57303 0.412982 6.61076 0.542764 6.6094 0.675131V0.667131Z" fill="#2B44D2"/>
</svg>
