<svg width="25" height="24" viewBox="0 0 25 24" fill="none" xmlns="http://www.w3.org/2000/svg">
<path d="M9.46118 3.00493C8.17365 3.00493 6.91503 3.38673 5.84449 4.10204C4.77394 4.81736 3.93956 5.83406 3.44684 7.02359C2.95412 8.21311 2.8252 9.52203 3.07639 10.7848C3.32757 12.0476 3.94758 13.2076 4.858 14.118C5.76843 15.0284 6.92837 15.6484 8.19117 15.8996C9.45396 16.1508 10.7629 16.0219 11.9524 15.5292C13.1419 15.0364 14.1586 14.202 14.8739 13.1315C15.5893 12.061 15.9711 10.8023 15.9711 9.51481C15.9711 7.78828 15.2852 6.13247 14.0644 4.91163C12.8435 3.69079 11.1877 3.00493 9.46118 3.00493ZM9.46118 9.26565e-06C11.6561 0.00105256 13.7831 0.760829 15.482 2.15062C17.1808 3.54041 18.3469 5.47474 18.7828 7.62591C19.2188 9.77709 18.8976 12.0128 17.8738 13.9543C16.85 15.8958 15.1865 17.4237 13.1652 18.2791C10.8467 19.2278 8.24767 19.2241 5.93195 18.2686C3.61624 17.3132 1.77069 15.4831 0.795771 13.1755C-0.179152 10.8679 -0.204803 8.26898 0.724384 5.9426C1.65357 3.61622 3.46264 1.75009 5.75904 0.749117C6.93016 0.253012 8.18932 -0.00177102 9.46118 9.26565e-06Z" fill="#8E95A3"/>
<path d="M23.7489 21.5236L17.3626 15.1374C17.1364 14.9124 16.8304 14.7861 16.5113 14.7861C16.1923 14.7861 15.8863 14.9124 15.6601 15.1374L15.2356 15.5619C15.0106 15.7881 14.8843 16.0941 14.8843 16.4132C14.8843 16.7322 15.0106 17.0382 15.2356 17.2644L21.6237 23.6488C21.8499 23.8737 22.156 24 22.475 24C22.794 24 23.1 23.8737 23.3262 23.6488L23.7508 23.2242C23.9749 22.9979 24.1005 22.6921 24.1001 22.3735C24.0997 22.055 23.9735 21.7495 23.7489 21.5236Z" fill="#8E95A3"/>
</svg>
